<?xml version="1.0" encoding="UTF-8" standalone="no"?>
<svg
   viewBox="0 0 64 64"
   fill="none"
   class="m2sbplDrGPJc_L2Hfl0Y"
   aria-hidden="true"
   version="1.1"
   id="svg9"
   sodipodi:docname="duck-skyline.svg"
   inkscape:version="1.4.4 (dcaf3e7d9e, 2026-05-05)"
   width="64"
   height="64"
   xmlns:inkscape="http://www.inkscape.org/namespaces/inkscape"
   xmlns:sodipodi="http://sodipodi.sourceforge.net/DTD/sodipodi-0.dtd"
   xmlns="http://www.w3.org/2000/svg"
   xmlns:svg="http://www.w3.org/2000/svg">
  <defs
     id="defs9" />
  <sodipodi:namedview
     id="namedview9"
     pagecolor="#ffffff"
     bordercolor="#000000"
     borderopacity="0.25"
     inkscape:showpageshadow="2"
     inkscape:pageopacity="0.0"
     inkscape:pagecheckerboard="0"
     inkscape:deskcolor="#d1d1d1"
     inkscape:zoom="11.875"
     inkscape:cx="48.042105"
     inkscape:cy="41.263158"
     inkscape:window-width="2560"
     inkscape:window-height="1366"
     inkscape:window-x="0"
     inkscape:window-y="0"
     inkscape:window-maximized="1"
     inkscape:current-layer="svg9" />
  <path
     d="m 44.836255,7.0938385 c 0.674294,-2.70442 4.408523,-2.789485 5.273433,-0.252671 l 0.07558,0.252671 0.853994,3.4287435 a 3.3739897,3.3841042 0 0 0 2.454498,2.461856 l 3.418494,0.857396 c 2.783668,0.697371 2.783668,4.665987 0,5.364201 l -1.246982,0.311627 a 26.750079,26.830269 0 0 1 3.076729,12.530787 c 0,14.884837 -12.030649,26.951552 -26.870998,26.951552 C 17.03065,59.000001 5,46.933286 5,32.048449 5,17.163613 17.03065,5.0968975 31.870998,5.0968975 a 26.750918,26.831112 0 0 1 12.670516,3.17944 l 0.294741,-1.181657 z"
     fill="#F05F2B"
     style="fill:#e50026;fill-opacity:1;stroke-width:0.840977"
     data-darkreader-inline-fill=""
     id="path1" />
  <path
     fill-rule="evenodd"
     clip-rule="evenodd"
     d="m 35.649732,52.107983 c 0,-0.210559 0.05122,-0.258566 -0.616353,-1.592668 -1.773486,-3.562658 -3.555369,-8.584069 -2.745041,-11.822466 0.147791,-0.588723 -1.67104,-21.79033 -2.955809,-22.473383 -1.428362,-0.763908 -3.186733,-1.975043 -4.794794,-2.244559 -0.814527,-0.130546 -1.885169,-0.06906 -2.720689,0.0438 -0.14863,0.02021 -0.154508,0.288045 -0.01259,0.336895 0.548336,0.186134 1.215072,0.510395 1.608061,0.999734 0.0739,0.09265 -0.02519,0.238353 -0.144432,0.242564 -0.369476,0.01432 -1.041251,0.170132 -1.927994,0.924775 -0.102446,0.08759 -0.01679,0.249302 0.114202,0.223193 1.905322,-0.378164 3.85011,-0.191188 4.996326,0.853185 0.07558,0.06738 0.03611,0.189503 -0.0613,0.216454 -9.948148,2.712 -7.979007,11.391242 -5.330535,22.043 2.446941,9.839843 3.3446,12.831466 3.590637,13.642539 0.0084,0.03032 0.02939,0.05222 0.05878,0.06485 3.380707,1.402323 10.941534,1.414956 10.941534,-0.931513 z"
     fill="#dddddd"
     data-darkreader-inline-fill=""
     id="path2"
     style="stroke-width:0.840977" />
  <path
     d="m 31.870998,7.1536375 a 24.65666,24.730575 0 0 1 12.023932,3.1196425 0.18053952,0.18108074 0 0 1 0.08733,0.202137 c -0.06466,0.259408 -0.159547,0.507026 -0.280466,0.738641 -0.333368,0.640941 -1.155453,0.707478 -1.802036,0.387428 A 22.573318,22.640988 0 0 0 31.870998,9.2592275 c -12.325391,0 -22.354151,9.8651105 -22.664847,22.1533335 l -0.0076,0.587038 c 0,10.549848 7.162801,19.421962 16.876667,21.98994 -0.778419,-2.461856 -2.653511,-8.767677 -4.428677,-16.066494 l -0.188097,-0.769804 -0.0017,-0.0067 c -2.277296,-9.33029 -4.137273,-16.950841 6.057752,-19.344476 0.09321,-0.0219 0.138553,-0.134757 0.07725,-0.20719 -1.169728,-1.392216 -3.361394,-1.847865 -6.131626,-0.889401 -0.114202,0.03958 -0.212449,-0.0758 -0.142752,-0.1735 0.544137,-0.751275 1.605542,-1.329049 2.129526,-1.58172 0.109164,-0.05222 0.102446,-0.210559 -0.0126,-0.247617 a 11.699801,11.734874 0 0 0 -1.583709,-0.379006 c -0.154508,-0.02527 -0.168783,-0.292256 -0.01343,-0.313312 3.928204,-0.529766 8.030229,0.653575 10.08838,3.2544 0.02015,0.02442 0.04786,0.04127 0.07809,0.04801 7.537315,1.622989 8.078094,13.573475 7.208985,14.118402 -0.170463,0.107806 -0.719639,0.04632 -1.443477,-0.03537 -2.932297,-0.328472 -8.740632,-0.980362 -3.946678,7.979344 0.04702,0.08843 -0.01595,0.205505 -0.114201,0.220666 -2.65687,0.41438 0.770022,8.952968 3.304293,14.556364 10.044722,-2.334678 17.530814,-11.367659 17.530814,-22.152491 0,-3.539917 -0.80697,-6.88949 -2.245408,-9.876901 -0.305657,-0.634204 -0.246877,-1.434328 0.366957,-1.77796 0.256954,-0.144865 0.534901,-0.25604 0.828803,-0.330157 a 0.09236906,0.09264596 0 0 1 0.104125,0.04548 24.659179,24.733102 0 0 1 3.04482,11.939537 c 0,13.721709 -11.091005,24.845962 -24.771702,24.845962 -13.680697,0 -24.771701,-11.124253 -24.771701,-24.845962 0,-13.721708 11.091004,-24.8459615 24.771701,-24.8459615 z"
     fill="#ffffff"
     data-darkreader-inline-fill=""
     id="path3"
     style="stroke-width:0.840977" />
  <path
     d="m 46.873412,7.5562265 c 0.166265,-0.665367 1.108429,-0.665367 1.274693,0 l 0.854834,3.4279005 a 5.4732864,5.4896941 0 0 0 3.981946,3.995568 l 3.417655,0.856554 c 0.663378,0.166762 0.663378,1.111751 0,1.278514 l -3.417655,0.857396 a 5.4732864,5.4896941 0 0 0 -3.981946,3.993883 l -0.854834,3.427901 c -0.166264,0.665366 -1.108428,0.665366 -1.274693,0 l -0.853994,-3.427901 a 5.4732864,5.4896941 0 0 0 -3.982785,-3.993883 l -3.417655,-0.857396 c -0.663378,-0.166763 -0.663378,-1.111752 0,-1.278514 l 3.417655,-0.856554 a 5.4732864,5.4896941 0 0 0 3.982785,-3.994726 l 0.853994,-3.4279005 z"
     fill="#ffffff"
     data-darkreader-inline-fill=""
     id="path4"
     style="stroke-width:0.840977" />
  <path
     d="m 40.386585,43.242608 c -0.573527,-0.266989 -2.779468,1.319783 -4.243938,2.538499 -0.306497,-0.434594 -0.883384,-0.74959 -2.184948,-0.523029 -1.139498,0.198768 -1.768447,0.474179 -2.048913,0.9492 -1.798678,-0.683895 -4.823345,-1.739217 -5.5539,-0.720112 -0.799412,1.114279 0.199013,6.384149 1.259578,7.068887 0.554214,0.357108 3.204367,-1.350946 4.588223,-2.529235 0.223365,0.315839 0.582765,0.496077 1.321717,0.479233 1.116826,-0.02611 2.929779,-0.287203 3.211085,-0.808547 a 0.57436759,0.57608941 0 0 0 0.04451,-0.11286 c 1.422483,0.533136 3.925685,1.097434 4.484098,1.01321 1.457751,-0.218981 -0.202373,-7.041935 -0.877507,-7.355246 z"
     fill="#33a055"
     data-darkreader-inline-fill=""
     id="path5"
     style="stroke-width:0.840977" />
  <path
     d="m 36.275323,45.93692 c 0.06046,0.107807 0.109163,0.221509 0.150309,0.336895 0.202373,0.569351 0.533222,2.378474 0.282986,2.825702 -0.249397,0.446385 -1.872573,0.662839 -2.873518,0.680526 -1.000105,0.01685 -1.225989,-0.35037 -1.428361,-0.918879 -0.162066,-0.454808 -0.241839,-1.524447 -0.24016,-2.137595 -0.04115,-0.908773 0.289703,-1.22798 1.819671,-1.475598 1.13194,-0.184449 1.72982,0.02948 2.075784,0.395851 1.607222,-1.204397 4.289283,-2.901503 4.550436,-2.59156 1.304083,1.547188 1.469508,5.230286 1.186522,6.712621 -0.09237,0.484286 -4.410202,-0.480075 -4.410202,-1.002261 0,-2.1696 -0.561772,-2.765061 -1.113467,-2.825702 z m -9.459431,-0.677157 c 0.353521,-0.561772 3.222,0.136442 4.796473,0.838867 0,0 -0.323292,1.470544 0.191456,3.203023 0.151149,0.506184 -3.622547,2.76085 -4.114622,2.373421 -0.569329,-0.448912 -1.616458,-5.235339 -0.873307,-6.415311 z"
     fill="#39b25e"
     data-darkreader-inline-fill=""
     id="path6"
     style="stroke-width:0.840977" />
  <path
     fill-rule="evenodd"
     clip-rule="evenodd"
     d="m 28.204786,33.855045 c 0.232602,-1.011525 1.31332,-2.91919 5.173507,-2.872024 1.951507,-0.0084 4.374935,-0.0017 5.982996,-0.185292 a 21.516952,21.581455 0 0 0 5.34313,-1.302939 c 1.67104,-0.639258 2.263882,-0.49692 2.471292,-0.113702 0.229243,0.420275 -0.04031,1.145441 -0.623911,1.814176 -1.115986,1.27683 -3.120395,2.265615 -6.661488,2.558713 -3.541094,0.29394 -5.886428,-0.658629 -6.89661,0.89277 -0.434974,0.668735 -0.09825,2.245401 3.325286,2.741478 4.62769,0.669578 8.428257,-0.806862 8.897659,0.08422 0.469403,0.89277 -2.235331,2.707789 -6.869738,2.745689 -4.635247,0.0379 -7.529758,-1.628042 -8.556734,-2.45596 -1.302403,-1.050268 -1.885168,-2.582296 -1.585389,-3.907133 z"
     fill="#ffc95c"
     data-darkreader-inline-fill=""
     id="path7"
     style="stroke-width:0.840977" />
  <g
     opacity="0.8"
     fill="#034180"
     data-darkreader-inline-fill=""
     id="g9"
     transform="matrix(0.83971869,0,0,0.84223598,-8.4354991,-8.4277283)">
    <path
       d="m 50.663,37.064 c 0.308,-0.505 0.99,-0.894 2.108,-0.894 1.117,0 1.643,0.445 2.007,0.94 0.074,0.102 -0.039,0.22 -0.154,0.17 l -0.083,-0.036 c -0.409,-0.178 -0.91,-0.398 -1.77,-0.41 -0.92,-0.013 -1.5,0.217 -1.864,0.416 -0.123,0.067 -0.317,-0.067 -0.244,-0.186 z m -12.578,0.645 c 1.085,-0.454 1.937,-0.395 2.54,-0.253 0.127,0.03 0.215,-0.106 0.114,-0.188 -0.468,-0.377 -1.515,-0.846 -2.88,-0.337 -1.219,0.455 -1.793,1.398 -1.797,2.019 0,0.146 0.3,0.158 0.378,0.035 0.21,-0.335 0.56,-0.823 1.645,-1.276 z"
       id="path8" />
    <path
       fill-rule="evenodd"
       clip-rule="evenodd"
       d="m 53.72,43.96 c -0.96,0 -1.737,-0.776 -1.737,-1.73 0,-0.955 0.778,-1.731 1.737,-1.731 0.959,0 1.737,0.776 1.737,1.73 0,0.955 -0.778,1.731 -1.737,1.731 z m 1.223,-2.304 a 0.45,0.45 0 0 0 -0.9,0 0.45,0.45 0 0 0 0.9,0 z m -12.732,1.771 a 2.021,2.021 0 0 1 -2.024,2.018 2.022,2.022 0 0 1 -2.025,-2.018 c 0,-1.115 0.908,-2.018 2.025,-2.018 1.116,0 2.024,0.903 2.024,2.018 z m -0.597,-0.67 a 0.524,0.524 0 0 0 -1.048,0 0.524,0.524 0 0 0 1.048,0 z"
       id="path9" />
  </g>
</svg>
