<?xml version="1.0" encoding="UTF-8" standalone="no"?>
<svg
   version="1.1"
   width="22"
   height="22"
   id="svg1"
   sodipodi:docname="connecting.svg"
   inkscape:version="1.4 (e7c3feb100, 2024-10-09)"
   xmlns:inkscape="http://www.inkscape.org/namespaces/inkscape"
   xmlns:sodipodi="http://sodipodi.sourceforge.net/DTD/sodipodi-0.dtd"
   xmlns="http://www.w3.org/2000/svg"
   xmlns:svg="http://www.w3.org/2000/svg">
  <defs
     id="defs1" />
  <sodipodi:namedview
     id="namedview1"
     pagecolor="#000000"
     bordercolor="#000000"
     borderopacity="0.25"
     inkscape:showpageshadow="2"
     inkscape:pageopacity="0.0"
     inkscape:pagecheckerboard="0"
     inkscape:deskcolor="#d1d1d1"
     inkscape:zoom="23.833333"
     inkscape:cx="23.979021"
     inkscape:cy="24"
     inkscape:window-width="2560"
     inkscape:window-height="1366"
     inkscape:window-x="0"
     inkscape:window-y="0"
     inkscape:window-maximized="1"
     inkscape:current-layer="svg1" />
  <path
     d="m 7.4545459,3.7902099 c 2.3353842,0 4.6707681,0 7.0769231,0 0,1.9850769 0,3.9701538 0,6.0153849 0.583846,0.1167686 1.167692,0.2335382 1.76923,0.3538452 0,2.568924 0,5.137846 0,7.784616 -3.503076,0 -7.0061536,0 -10.6153842,0 0,-2.568923 0,-5.137846 0,-7.784616 0.5838461,-0.116769 1.167692,-0.2335381 1.7692311,-0.3538452 0,-1.9850772 0,-3.9701542 0,-6.0153849 z m 1.7692304,1.7692308 c 0,1.4012307 0,2.8024616 0,4.2461541 1.1676927,0 2.3353847,0 3.5384617,0 0,-1.4012314 0,-2.8024618 0,-4.2461541 -1.167692,0 -2.335384,0 -3.5384617,0 z m 0.066349,6.7894233 c -0.8690817,0.907261 -0.8690817,0.907261 -0.7740388,1.924039 0.3837574,0.911423 0.5870015,1.359189 1.4153851,1.901922 1.1157694,0.139472 1.8084214,0.206154 2.7644224,-0.420192 0.564853,-0.862142 0.774039,-1.369777 0.774039,-2.410577 -0.73718,-1.032051 -0.73718,-1.032051 -1.769231,-1.769231 -1.439307,-0.144827 -1.439307,-0.144827 -2.4105767,0.774039 z"
     fill="#ffffff"
     id="path1"
     style="stroke-width:0.353846" />
</svg>
