<?xml version="1.0" encoding="UTF-8" standalone="no"?>
<svg
   version="1.1"
   width="22"
   height="22"
   id="svg1"
   sodipodi:docname="connected.svg"
   inkscape:version="1.4 (e7c3feb100, 2024-10-09)"
   xmlns:inkscape="http://www.inkscape.org/namespaces/inkscape"
   xmlns:sodipodi="http://sodipodi.sourceforge.net/DTD/sodipodi-0.dtd"
   xmlns="http://www.w3.org/2000/svg"
   xmlns:svg="http://www.w3.org/2000/svg">
  <defs
     id="defs1" />
  <sodipodi:namedview
     id="namedview1"
     pagecolor="#000000"
     bordercolor="#000000"
     borderopacity="0.25"
     inkscape:showpageshadow="2"
     inkscape:pageopacity="0.0"
     inkscape:pagecheckerboard="0"
     inkscape:deskcolor="#d1d1d1"
     inkscape:zoom="23.833333"
     inkscape:cx="23.979021"
     inkscape:cy="24"
     inkscape:window-width="2560"
     inkscape:window-height="1366"
     inkscape:window-x="0"
     inkscape:window-y="0"
     inkscape:window-maximized="1"
     inkscape:current-layer="svg1" />
  <path
     d="m 7.5454541,3.7902098 c 2.3446159,0 4.6892319,0 7.1048969,0 0,1.9929231 0,3.9858462 0,6.039161 0.586153,0.1172303 1.172307,0.2344622 1.776224,0.3552452 0,2.579077 0,5.158153 0,7.815384 -3.516924,0 -7.033848,0 -10.6573443,0 0,-2.579076 0,-5.158153 0,-7.815384 0.5861538,-0.117231 1.1723078,-0.2344624 1.7762234,-0.3552452 0,-1.9929231 0,-3.9858463 0,-6.039161 z m 1.7762242,1.7762238 c 0,1.4067693 0,2.8135384 0,4.2629372 1.1723077,0 2.3446167,0 3.5524487,0 0,-1.4067696 0,-2.8135386 0,-4.2629372 -1.172308,0 -2.344616,0 -3.5524487,0 z"
     fill="#ffffff"
     id="path1"
     style="stroke-width:0.355245" />
</svg>
