<?xml version="1.0" encoding="UTF-8" standalone="no"?>
<!-- Created with Inkscape (http://www.inkscape.org/) -->

<svg
   inkscape:export-ydpi="96"
   inkscape:export-xdpi="96"
   inkscape:export-filename="Template.png"
   width="64"
   height="64"
   id="svg11300"
   sodipodi:version="0.32"
   inkscape:version="1.4.3 (0d15f75042, 2025-12-25)"
   sodipodi:docname="org.gnome.Lollypop-nothin.svg"
   inkscape:output_extension="org.inkscape.output.svg.inkscape"
   version="1.0"
   style="display:inline;enable-background:new"
   viewBox="0 0 64 64"
   xmlns:inkscape="http://www.inkscape.org/namespaces/inkscape"
   xmlns:sodipodi="http://sodipodi.sourceforge.net/DTD/sodipodi-0.dtd"
   xmlns="http://www.w3.org/2000/svg"
   xmlns:svg="http://www.w3.org/2000/svg"
   xmlns:rdf="http://www.w3.org/1999/02/22-rdf-syntax-ns#"
   xmlns:cc="http://creativecommons.org/ns#"
   xmlns:dc="http://purl.org/dc/elements/1.1/">
  <title
     id="title4162">Adwaita Icon Template</title>
  <defs
     id="defs3" />
  <sodipodi:namedview
     stroke="#ef2929"
     fill="#f57900"
     id="base"
     pagecolor="#ffffff"
     bordercolor="#666666"
     borderopacity="0.25490196"
     inkscape:pageopacity="0.0"
     inkscape:pageshadow="2"
     inkscape:zoom="8.0000002"
     inkscape:cx="46.624999"
     inkscape:cy="23.749999"
     inkscape:current-layer="layer9"
     showgrid="false"
     inkscape:grid-bbox="true"
     inkscape:document-units="px"
     inkscape:showpageshadow="false"
     inkscape:window-width="2560"
     inkscape:window-height="1366"
     inkscape:window-x="0"
     inkscape:window-y="0"
     width="400px"
     height="300px"
     inkscape:snap-nodes="true"
     inkscape:snap-bbox="false"
     objecttolerance="7"
     gridtolerance="12"
     guidetolerance="13"
     inkscape:window-maximized="1"
     inkscape:pagecheckerboard="false"
     showguides="false"
     inkscape:guide-bbox="true"
     inkscape:locked="false"
     inkscape:measure-start="0,0"
     inkscape:measure-end="0,0"
     inkscape:object-nodes="true"
     inkscape:bbox-nodes="true"
     inkscape:snap-global="true"
     inkscape:object-paths="true"
     inkscape:snap-intersection-paths="true"
     inkscape:snap-bbox-edge-midpoints="true"
     inkscape:snap-bbox-midpoints="true"
     showborder="false"
     inkscape:snap-center="true"
     inkscape:snap-object-midpoints="true"
     inkscape:snap-midpoints="true"
     inkscape:snap-smooth-nodes="true"
     inkscape:deskcolor="#d1d1d1">
    <inkscape:grid
       type="xygrid"
       id="grid5883"
       spacingx="2"
       spacingy="2"
       enabled="true"
       visible="true"
       empspacing="4"
       originx="0"
       originy="0"
       units="px" />
    <sodipodi:guide
       position="64,8"
       orientation="0,1"
       id="guide1073"
       inkscape:locked="false"
       inkscape:label=""
       inkscape:color="rgb(0,0,255)" />
    <sodipodi:guide
       position="12,64"
       orientation="1,0"
       id="guide1075"
       inkscape:locked="false"
       inkscape:label=""
       inkscape:color="rgb(0,0,255)" />
    <sodipodi:guide
       position="64,104"
       orientation="0,1"
       id="guide1099"
       inkscape:locked="false"
       inkscape:label=""
       inkscape:color="rgb(0,0,255)" />
    <sodipodi:guide
       position="64,128"
       orientation="0,1"
       id="guide993"
       inkscape:locked="false"
       inkscape:label=""
       inkscape:color="rgb(0,0,255)" />
    <sodipodi:guide
       position="104,64"
       orientation="1,0"
       id="guide995"
       inkscape:locked="false"
       inkscape:label=""
       inkscape:color="rgb(0,0,255)" />
    <sodipodi:guide
       position="9.2651362e-08,64"
       orientation="1,0"
       id="guide867"
       inkscape:locked="false"
       inkscape:label=""
       inkscape:color="rgb(0,0,255)" />
    <sodipodi:guide
       position="120,64"
       orientation="1,0"
       id="guide869"
       inkscape:locked="false"
       inkscape:label=""
       inkscape:color="rgb(0,0,255)" />
    <sodipodi:guide
       position="64,116"
       orientation="0,1"
       id="guide871"
       inkscape:locked="false"
       inkscape:label=""
       inkscape:color="rgb(0,0,255)" />
    <inkscape:grid
       type="xygrid"
       id="grid873"
       spacingx="1"
       spacingy="1"
       empspacing="8"
       color="#000000"
       opacity="0.49019608"
       empcolor="#000000"
       empopacity="0.08627451"
       dotted="true"
       originx="0"
       originy="0"
       units="px" />
    <sodipodi:guide
       position="24,64"
       orientation="1,0"
       id="guide877"
       inkscape:locked="false"
       inkscape:label=""
       inkscape:color="rgb(0,0,255)" />
    <sodipodi:guide
       position="116,64"
       orientation="1,0"
       id="guide879"
       inkscape:locked="false"
       inkscape:label=""
       inkscape:color="rgb(0,0,255)" />
    <sodipodi:guide
       position="64,120"
       orientation="0,1"
       id="guide881"
       inkscape:locked="false"
       inkscape:label=""
       inkscape:color="rgb(0,0,255)" />
    <sodipodi:guide
       position="64,12"
       orientation="0,1"
       id="guide883"
       inkscape:locked="false"
       inkscape:label=""
       inkscape:color="rgb(0,0,255)" />
    <sodipodi:guide
       position="8,64"
       orientation="1,0"
       id="guide885"
       inkscape:locked="false"
       inkscape:label=""
       inkscape:color="rgb(0,0,255)" />
    <sodipodi:guide
       position="128,64"
       orientation="1,0"
       id="guide887"
       inkscape:locked="false"
       inkscape:label=""
       inkscape:color="rgb(0,0,255)" />
    <sodipodi:guide
       position="64,0"
       orientation="0,1"
       id="guide897"
       inkscape:locked="false"
       inkscape:label=""
       inkscape:color="rgb(0,0,255)" />
    <sodipodi:guide
       position="64,24"
       orientation="0,1"
       id="guide899"
       inkscape:locked="false"
       inkscape:label=""
       inkscape:color="rgb(0,0,255)" />
    <sodipodi:guide
       position="256,256"
       orientation="-0.70710678,0.70710678"
       id="guide950"
       inkscape:locked="false"
       inkscape:label=""
       inkscape:color="rgb(0,0,255)" />
    <sodipodi:guide
       position="64,64"
       orientation="0.70710678,0.70710678"
       id="guide952"
       inkscape:locked="false"
       inkscape:label=""
       inkscape:color="rgb(0,0,255)" />
  </sodipodi:namedview>
  <metadata
     id="metadata4">
    <rdf:RDF>
      <cc:Work
         rdf:about="">
        <dc:format>image/svg+xml</dc:format>
        <dc:type
           rdf:resource="http://purl.org/dc/dcmitype/StillImage" />
        <dc:creator>
          <cc:Agent>
            <dc:title>GNOME Design Team</dc:title>
          </cc:Agent>
        </dc:creator>
        <dc:source />
        <cc:license
           rdf:resource="http://creativecommons.org/licenses/by-sa/4.0/" />
        <dc:title>Adwaita Icon Template</dc:title>
        <dc:subject>
          <rdf:Bag />
        </dc:subject>
        <dc:date />
        <dc:rights>
          <cc:Agent>
            <dc:title />
          </cc:Agent>
        </dc:rights>
        <dc:publisher>
          <cc:Agent>
            <dc:title />
          </cc:Agent>
        </dc:publisher>
        <dc:identifier />
        <dc:relation />
        <dc:language />
        <dc:coverage />
        <dc:description />
        <dc:contributor>
          <cc:Agent>
            <dc:title />
          </cc:Agent>
        </dc:contributor>
      </cc:Work>
      <cc:License
         rdf:about="http://creativecommons.org/licenses/by-sa/4.0/">
        <cc:permits
           rdf:resource="http://creativecommons.org/ns#Reproduction" />
        <cc:permits
           rdf:resource="http://creativecommons.org/ns#Distribution" />
        <cc:requires
           rdf:resource="http://creativecommons.org/ns#Notice" />
        <cc:requires
           rdf:resource="http://creativecommons.org/ns#Attribution" />
        <cc:permits
           rdf:resource="http://creativecommons.org/ns#DerivativeWorks" />
        <cc:requires
           rdf:resource="http://creativecommons.org/ns#ShareAlike" />
      </cc:License>
    </rdf:RDF>
  </metadata>
  <g
     id="layer1"
     inkscape:label="Icon"
     inkscape:groupmode="layer"
     style="display:inline"
     transform="translate(0,-172)">
    <g
       inkscape:groupmode="layer"
       id="layer2"
       inkscape:label="baseplate"
       style="display:none"
       sodipodi:insensitive="true">
      <text
         xml:space="preserve"
         style="font-style:normal;font-variant:normal;font-weight:normal;font-stretch:normal;font-size:5.33333px;line-height:125%;font-family:Cantarell;-inkscape-font-specification:'Cantarell, Normal';text-align:start;writing-mode:lr-tb;text-anchor:start;display:inline;fill:#000000;fill-opacity:1;stroke:none;stroke-width:0.332649;enable-background:new"
         x="7.9499588"
         y="148.65199"
         id="context"
         inkscape:label="context"><tspan
           sodipodi:role="line"
           id="tspan2716"
           x="7.9499588"
           y="148.65199"
           style="font-size:5.33333px;stroke-width:0.332649">apps</tspan></text>
      <text
         inkscape:label="icon-name"
         id="text3021"
         y="157.23398"
         x="7.7533054"
         style="font-style:normal;font-variant:normal;font-weight:bold;font-stretch:normal;font-size:5.33333px;line-height:125%;font-family:Cantarell;-inkscape-font-specification:'Cantarell, Bold';text-align:start;writing-mode:lr-tb;text-anchor:start;display:inline;fill:#000000;fill-opacity:1;stroke:none;stroke-width:0.332649;enable-background:new"
         xml:space="preserve"><tspan
           y="157.23398"
           x="7.7533054"
           id="tspan3023"
           sodipodi:role="line"
           style="font-size:5.33333px;stroke-width:0.332649">org.gnome.Lollypop</tspan></text>
      <g
         style="display:inline;fill:#000000;enable-background:new"
         transform="matrix(7.9911709,0,0,8.0036407,-167.7909,-4846.0776)"
         id="g12027"
         inkscape:export-xdpi="12"
         inkscape:export-ydpi="12" />
      <rect
         style="display:inline;overflow:visible;visibility:visible;fill:#f0f0f0;fill-opacity:1;fill-rule:nonzero;stroke:none;stroke-width:0.5;marker:none;enable-background:accumulate"
         id="rect13805"
         width="128"
         height="128"
         x="9.2651362e-08"
         y="172"
         inkscape:label="512x512" />
      <g
         id="g883"
         style="fill:none;fill-opacity:0.25098;stroke:#a579b3;stroke-opacity:1"
         transform="translate(-24,24)" />
      <g
         id="g900"
         style="fill:none;fill-opacity:0.25098;stroke:#a579b3;stroke-opacity:1"
         transform="translate(-24,24)" />
      <g
         id="g1168"
         transform="matrix(0.25,0,0,0.25,6.9488522e-8,225)">
        <circle
           cx="256"
           cy="44"
           r="240"
           id="path1142"
           style="opacity:0.1;fill:#2864b0;fill-opacity:1;stroke:none;stroke-width:1;stroke-linecap:butt;stroke-linejoin:miter;stroke-miterlimit:4;stroke-dasharray:none;stroke-dashoffset:0;stroke-opacity:1;marker:none;marker-start:none;marker-mid:none;marker-end:none;paint-order:normal" />
        <rect
           ry="32"
           rx="32"
           y="-180"
           x="96"
           height="448"
           width="319.99979"
           id="rect1110"
           style="opacity:0.1;fill:#2864b0;fill-opacity:1;stroke:none;stroke-width:1;stroke-linecap:butt;stroke-linejoin:miter;stroke-miterlimit:4;stroke-dasharray:none;stroke-dashoffset:0;stroke-opacity:1;marker:none;marker-start:none;marker-mid:none;marker-end:none;paint-order:normal" />
        <rect
           ry="32"
           rx="32"
           y="-164"
           x="48"
           height="416"
           width="416"
           id="rect1110-8"
           style="display:inline;opacity:0.1;fill:#2864b0;fill-opacity:1;stroke:none;stroke-width:1;stroke-linecap:butt;stroke-linejoin:miter;stroke-miterlimit:4;stroke-dasharray:none;stroke-dashoffset:0;stroke-opacity:1;marker:none;marker-start:none;marker-mid:none;marker-end:none;paint-order:normal;enable-background:new" />
        <rect
           ry="32"
           rx="32"
           y="-116"
           x="32"
           height="320"
           width="448"
           id="rect1110-8-9"
           style="display:inline;opacity:0.1;fill:#2864b0;fill-opacity:1;stroke:none;stroke-width:1;stroke-linecap:butt;stroke-linejoin:miter;stroke-miterlimit:4;stroke-dasharray:none;stroke-dashoffset:0;stroke-opacity:1;marker:none;marker-start:none;marker-mid:none;marker-end:none;paint-order:normal;enable-background:new" />
      </g>
    </g>
    <g
       inkscape:groupmode="layer"
       id="layer9"
       inkscape:label="hires"
       style="display:inline">
      <ellipse
         cy="204"
         cx="32"
         id="circle911"
         style="display:inline;opacity:1;fill:#ad3fe4;fill-opacity:1;stroke:none;stroke-width:3.73174;stroke-linejoin:round;stroke-miterlimit:4;stroke-dasharray:0.466468, 0.233233;stroke-dashoffset:0;stroke-opacity:1;enable-background:new"
         rx="27.976101"
         ry="28" />
      <path
         inkscape:connector-curvature="0"
         style="display:inline;opacity:1;fill:#f6f5f4;fill-opacity:1;stroke:none;stroke-width:3.76374;stroke-opacity:1;enable-background:new"
         d="m 26.650344,176.51669 c -0.719232,0.13227 -1.433167,0.29313 -2.139862,0.48086 -0.899625,0.24963 -1.786452,0.54524 -2.65665,0.8837 -0.870025,0.33822 -1.723425,0.71984 -2.55537,1.14361 -0.83184,0.42384 -1.640129,0.88833 -2.425524,1.39315 -0.785675,0.50492 -1.546168,1.05134 -2.277501,1.63225 -0.731266,0.58073 -1.433814,1.19716 -2.103506,1.84799 -0.08616,0.0913 -0.169813,0.18126 -0.254497,0.27291 0.600645,4.126 1.879889,7.9344 5.463921,12.02103 a 16.287888,16.301802 0 0 1 4.373215,-5.10471 c -0.483837,-5.72973 1.534018,-10.22248 4.575774,-14.57079 z m 12.615841,0.45485 c -3.266549,2.5845 -5.917997,5.5929 -7.660916,10.73965 A 16.287888,16.301802 0 0 1 32,187.69789 a 16.287888,16.301802 0 0 1 6.21703,1.23977 c 4.709227,-3.27682 9.599029,-3.77535 14.875163,-3.31648 -0.324135,-0.39053 -0.659881,-0.77391 -1.005009,-1.14623 -0.650411,-0.67031 -1.334949,-1.30592 -2.048974,-1.90778 -0.713936,-0.60192 -1.457745,-1.16969 -2.228156,-1.69723 -0.770463,-0.52757 -1.564697,-1.01539 -2.383971,-1.46333 -0.819235,-0.44791 -1.661771,-0.85515 -2.521612,-1.21898 -0.85992,-0.36391 -1.736238,-0.68307 -2.628082,-0.95908 -0.334095,-0.0921 -0.672692,-0.17793 -1.010204,-0.25732 z M 5.5477659,194.90301 c -0.1034447,0.27034 -0.2006495,0.54287 -0.29605,0.81613 -0.275099,0.89252 -0.5079745,1.7979 -0.6933773,2.71351 -0.1854292,0.9156 -0.324924,1.84111 -0.4181041,2.77065 -0.093073,0.92974 -0.140234,1.86229 -0.140234,2.79669 -1.197e-4,0.66139 0.019452,1.32344 0.070111,1.98314 0.065949,0.9321 0.1797465,1.86033 0.3375994,2.78108 0.146365,0.82529 0.331039,1.64214 0.5505465,2.45099 3.8752005,1.54502 7.8135246,2.3391 13.1508076,1.27098 a 16.287888,16.301802 0 0 1 -2.235948,-6.3367 C 10.673346,203.70572 7.7904338,199.71221 5.5477593,194.903 Z m 45.1474681,0.15076 c -1.549261,-0.0311 -3.125014,0.12296 -4.8069,0.45485 a 16.287888,16.301802 0 0 1 2.238545,6.34449 c 5.199852,2.44375 8.082635,6.43464 10.325357,11.24387 0.103446,-0.26996 0.200649,-0.5429 0.296048,-0.81612 0.275099,-0.89257 0.507976,-1.79782 0.693378,-2.71351 0.18544,-0.91551 0.324925,-1.83852 0.418104,-2.76808 C 59.952846,205.86951 60,204.93431 60,203.99999 c 1.08e-4,-0.66144 -0.01986,-1.32083 -0.07012,-1.98054 -0.06595,-0.93207 -0.179751,-1.8603 -0.337602,-2.78108 -0.147121,-0.82906 -0.329306,-1.65157 -0.550546,-2.46397 -3.012079,-1.07444 -5.644257,-1.66659 -8.346505,-1.72063 z m -4.396586,16.75402 a 16.287888,16.301802 0 0 1 -4.373216,5.10472 c 0.483823,5.72973 -1.53407,10.2225 -4.575774,14.57079 0.719221,-0.13228 1.433194,-0.29272 2.139863,-0.48085 0.899569,-0.24963 1.786464,-0.54526 2.65665,-0.88372 0.870079,-0.33818 1.723451,-0.71986 2.55537,-1.14361 0.831839,-0.42377 1.640116,-0.88829 2.425525,-1.39314 0.785621,-0.50479 1.546153,-1.0487 2.277499,-1.62965 0.731226,-0.58069 1.433813,-1.19977 2.1035,-1.85059 0.08616,-0.0917 0.172431,-0.18126 0.2571,-0.27291 -0.600647,-4.12609 -1.882539,-7.93443 -5.466517,-12.02104 z m -20.515676,7.2542 c -4.709162,3.27687 -9.596465,3.77805 -14.872564,3.31912 0.324135,0.39089 0.65732,0.77128 1.00241,1.14361 0.650465,0.67019 1.33495,1.30854 2.048972,1.91038 0.713993,0.60192 1.457773,1.16705 2.228157,1.69463 0.77045,0.52753 1.567337,1.01541 2.386571,1.46331 0.81926,0.44797 1.659158,0.85517 2.519012,1.219 0.859881,0.36391 1.73885,0.68558 2.630681,0.96168 0.336781,0.0927 0.675013,0.17756 1.015397,0.2573 3.265207,-2.58513 5.914877,-5.59645 7.655722,-10.74484 A 16.287888,16.301802 0 0 1 32,220.30178 16.287888,16.301802 0 0 1 25.782972,219.06199 Z"
         id="path1047-3" />
      <ellipse
         style="display:inline;opacity:1;fill:#f6f5f4;fill-opacity:1;stroke:none;stroke-width:3.35857;stroke-linejoin:round;stroke-miterlimit:4;stroke-dasharray:0.419821, 0.20991;stroke-dashoffset:0;stroke-opacity:1;enable-background:new"
         id="circle913"
         cx="32"
         cy="204"
         rx="16.78566"
         ry="16.799999" />
      <path
         style="display:inline;opacity:0.2;fill:#000000;fill-opacity:1;stroke:none;stroke-width:3.73174;stroke-linejoin:round;stroke-miterlimit:4;stroke-dasharray:0.466468, 0.233233;stroke-dashoffset:0;stroke-opacity:1;enable-background:new"
         d="M 59.946957,203.1815 A 27.976102,28.000001 0 0 1 32,230.59999 27.976102,28.000001 0 0 1 4.0530439,203.41848 a 27.976102,28.000001 0 0 0 -0.029142,0.58151 27.976102,28.000001 0 0 0 27.9760981,28 27.976102,28.000001 0 0 0 27.976099,-28 27.976102,28.000001 0 0 0 -0.02914,-0.81849 z"
         id="circle1110"
         inkscape:connector-curvature="0" />
    </g>
    <g
       style="display:inline"
       id="g1140"
       inkscape:label="media-playback-start"
       transform="matrix(1.3988049,0,0,1.3999998,-34.210099,-488.99994)">
      <rect
         y="487"
         x="40"
         height="16"
         width="16"
         id="rect1136"
         style="color:#bebebe;display:inline;overflow:visible;visibility:visible;fill:none;stroke:none;stroke-width:1;marker:none" />
      <path
         sodipodi:nodetypes="ccccccsccccc"
         inkscape:connector-curvature="0"
         id="path1138"
         transform="translate(-39.99995,-119)"
         d="m 84,609 v 10 H 84.90625 85 c 0.174914,10e-4 0.347782,-0.0388 0.5,-0.125 l 7,-4 c 0.310699,-0.17189 0.46875,-0.52345 0.46875,-0.875 0,-0.35155 -0.158051,-0.70311 -0.46875,-0.875 l -7,-4 C 85.347782,609.03875 85.174914,608.99869 85,609 h -0.09375 z"
         style="color:#000000;font-style:normal;font-variant:normal;font-weight:normal;font-stretch:normal;font-size:medium;line-height:normal;font-family:'Bitstream Vera Sans';-inkscape-font-specification:'Bitstream Vera Sans';text-indent:0;text-align:start;text-decoration:none;text-decoration-line:none;letter-spacing:normal;word-spacing:normal;text-transform:none;writing-mode:lr-tb;direction:ltr;text-anchor:start;display:inline;overflow:visible;visibility:visible;fill:#ae3fe4;fill-opacity:1;fill-rule:nonzero;stroke:none;stroke-width:2;marker:none;enable-background:accumulate" />
    </g>
  </g>
</svg>
