<?xml version="1.0" encoding="UTF-8" standalone="no"?>
<svg
   width="64"
   height="64"
   version="1.1"
   id="svg2"
   sodipodi:docname="media-coral.svg"
   inkscape:version="1.4.4 (dcaf3e7d9e, 2026-05-05)"
   xmlns:inkscape="http://www.inkscape.org/namespaces/inkscape"
   xmlns:sodipodi="http://sodipodi.sourceforge.net/DTD/sodipodi-0.dtd"
   xmlns="http://www.w3.org/2000/svg"
   xmlns:svg="http://www.w3.org/2000/svg">
  <defs
     id="defs2" />
  <sodipodi:namedview
     id="namedview2"
     pagecolor="#ffffff"
     bordercolor="#000000"
     borderopacity="0.25"
     inkscape:showpageshadow="2"
     inkscape:pageopacity="0.0"
     inkscape:pagecheckerboard="0"
     inkscape:deskcolor="#d1d1d1"
     inkscape:zoom="12.59534"
     inkscape:cx="20.44407"
     inkscape:cy="26.994111"
     inkscape:window-width="2560"
     inkscape:window-height="1366"
     inkscape:window-x="0"
     inkscape:window-y="0"
     inkscape:window-maximized="1"
     inkscape:current-layer="svg2" />
  <ellipse
     style="fill:#315447;fill-opacity:1;stroke:#1a1a1a;stroke-width:4.17698;stroke-linejoin:round;stroke-opacity:0"
     id="path3"
     cx="32"
     cy="32"
     rx="27.41151"
     ry="27.411512" />
  <path
     fill="#4287ea"
     d="m 32.00099,23.805554 c -1.791839,0 -7.558505,10.126148 -6.677882,11.836055 0.879532,1.709908 12.486066,1.691334 13.355764,0 C 39.54857,33.950276 33.792831,23.806646 32.00099,23.805554 Z"
     id="path1"
     style="stroke-width:1.09259" />
  <path
     fill="#a245e9"
     d="m 32.002771,6.3240728 c -5.783054,0 -24.4007075,33.7534632 -21.562171,39.4535182 2.838536,5.700055 40.316398,5.6345 43.124342,0 C 56.372886,40.143091 37.785824,6.3240728 32.002771,6.3240728 Z M 46.133177,40.831424 c -1.839915,3.692963 -26.394677,3.734482 -28.25535,0 -1.860672,-3.734481 10.339136,-25.850741 14.128221,-25.850741 3.789086,0 15.967042,22.156686 14.128221,25.850741 z"
     id="path2"
     style="fill:#45e9aa;fill-opacity:1;stroke-width:1.09259" />
</svg>
