<?xml version="1.0" encoding="UTF-8" standalone="no"?>
<svg
   version="1.1"
   width="24"
   height="24"
   id="svg1"
   sodipodi:docname="connected.svg"
   inkscape:version="1.4 (e7c3feb100, 2024-10-09)"
   xmlns:inkscape="http://www.inkscape.org/namespaces/inkscape"
   xmlns:sodipodi="http://sodipodi.sourceforge.net/DTD/sodipodi-0.dtd"
   xmlns="http://www.w3.org/2000/svg"
   xmlns:svg="http://www.w3.org/2000/svg">
  <defs
     id="defs1" />
  <sodipodi:namedview
     id="namedview1"
     pagecolor="#000000"
     bordercolor="#000000"
     borderopacity="0.25"
     inkscape:showpageshadow="2"
     inkscape:pageopacity="0.0"
     inkscape:pagecheckerboard="0"
     inkscape:deskcolor="#d1d1d1"
     inkscape:zoom="23.833333"
     inkscape:cx="23.979021"
     inkscape:cy="24"
     inkscape:window-width="2560"
     inkscape:window-height="1366"
     inkscape:window-x="0"
     inkscape:window-y="0"
     inkscape:window-maximized="1"
     inkscape:current-layer="svg1" />
  <path
     d="m 7.9720277,3.7482517 c 2.6861543,0 5.3723083,0 8.1398603,0 0,2.2832308 0,4.5664615 0,6.9188803 0.671539,0.134308 1.343078,0.268616 2.034965,0.406993 0,2.95477 0,5.909538 0,8.953847 -4.029231,0 -8.058462,0 -12.20979,0 0,-2.95477 0,-5.90954 0,-8.953847 0.6715385,-0.134307 1.343077,-0.268616 2.0349647,-0.406993 0,-2.28323 0,-4.5664607 0,-6.9188803 z m 2.0349653,2.034965 c 0,1.6116923 0,3.2233846 0,4.8839153 1.343077,0 2.686154,0 4.069931,0 0,-1.6116918 0,-3.2233838 0,-4.8839153 -1.343077,0 -2.686154,0 -4.069931,0 z"
     fill="#ffffff"
     id="path1"
     style="stroke-width:0.406993" />
</svg>
