<?xml version="1.0" encoding="UTF-8" standalone="no"?>
<svg
   width="64"
   height="64"
   viewBox="0 0 130.17285 130.17285"
   version="1.1"
   id="svg13"
   sodipodi:docname="com.github.wwmm.easyeffects.svg"
   inkscape:version="1.3.2 (091e20ef0f, 2023-11-25)"
   xmlns:inkscape="http://www.inkscape.org/namespaces/inkscape"
   xmlns:sodipodi="http://sodipodi.sourceforge.net/DTD/sodipodi-0.dtd"
   xmlns="http://www.w3.org/2000/svg"
   xmlns:svg="http://www.w3.org/2000/svg">
  <defs
     id="defs13" />
  <sodipodi:namedview
     id="namedview13"
     pagecolor="#ffffff"
     bordercolor="#000000"
     borderopacity="0.25"
     inkscape:showpageshadow="2"
     inkscape:pageopacity="0.0"
     inkscape:pagecheckerboard="0"
     inkscape:deskcolor="#d1d1d1"
     inkscape:zoom="8.2643105"
     inkscape:cx="61.953142"
     inkscape:cy="29.403542"
     inkscape:window-width="1920"
     inkscape:window-height="1018"
     inkscape:window-x="0"
     inkscape:window-y="0"
     inkscape:window-maximized="1"
     inkscape:current-layer="svg13" />
  <linearGradient
     id="a"
     x1="3.9999001"
     x2="124"
     y1="235"
     y2="235"
     gradientTransform="matrix(0.64717248,0.64705476,-0.64717248,0.64705476,175.75424,-128.39235)"
     gradientUnits="userSpaceOnUse">
    <stop
       stop-color="#59cde7"
       offset="0"
       id="stop1"
       style="stop-color:#e63454;stop-opacity:1;" />
    <stop
       stop-color="#1c71d8"
       offset="1"
       id="stop2"
       style="stop-color:#af1b1b;stop-opacity:1;" />
  </linearGradient>
  <path
     d="m 119.99806,66.000349 c 0,29.824815 -24.585976,54.002751 -54.914152,54.002751 -30.328172,0 -54.914154,-24.177936 -54.914154,-54.002751 0,-29.824815 24.585982,-54.002744 54.914154,-54.002744 30.328176,0 54.914152,24.177929 54.914152,54.002744 z"
     fill="#1a5fb4"
     id="path2"
     style="fill:#b41a33;fill-opacity:1;stroke-width:0.907609" />
  <path
     d="m 65.083908,13.827744 c 28.308246,0 51.253212,22.940792 51.253212,51.243891 v 1.830139 c 0,28.303103 -22.944966,51.243886 -51.253212,51.243886 -28.308246,0 -51.25321,-22.940783 -51.25321,-51.243886 v -1.830139 c 0,-28.303099 22.944964,-51.243891 51.25321,-51.243891 z"
     fill="#d5d3cf"
     id="path3"
     style="stroke-width:0.915153" />
  <path
     d="m 103.91737,103.89804 c -21.443979,21.44372 -56.215622,21.44372 -77.6596,0 -21.4476378,-21.440085 -21.4476378,-56.205405 0,-77.645483 21.443978,-21.4437374 56.215621,-21.4437374 77.6596,0 21.44764,21.440078 21.44764,56.205398 0,77.645483 z"
     fill="url(#a)"
     id="path4"
     style="fill:url(#a);stroke-width:0.915153" />
  <g
     transform="matrix(0.91523594,0,0,0.91506947,-0.81307724,-7.2188535)"
     id="g10">
    <path
       d="m 72,40 c 2.2109,0 4,1.7891 4,4 v 72 c 0,2.2109 -1.7891,4 -4,4 -2.2109,0 -4,-1.7891 -4,-4 V 44 c 0,-2.2109 1.7891,-4 4,-4 z"
       fill="#ffffff"
       fill-opacity="0.55"
       id="path5" />
    <path
       d="m 48,48 c 2.2109,0 4,1.7891 4,4 v 56 c 0,2.2109 -1.7891,4 -4,4 -2.2109,0 -4,-1.7891 -4,-4 V 52 c 0,-2.2109 1.7891,-4 4,-4 z"
       fill="#ffffff"
       fill-opacity="0.55"
       id="path6" />
    <path
       d="m 96,48 c 2.2109,0 4,1.7891 4,4 v 56 c 0,2.2109 -1.7891,4 -4,4 -2.2109,0 -4,-1.7891 -4,-4 V 52 c 0,-2.2109 1.7891,-4 4,-4 z"
       fill="#ffffff"
       fill-opacity="0.55"
       id="path7" />
    <path
       d="m 56,83 c 0,4.418 -3.582,8 -8,8 -4.418,0 -8,-3.582 -8,-8 0,-4.418 3.582,-8 8,-8 4.418,0 8,3.582 8,8 z"
       fill="#241f31"
       fill-opacity="0.3"
       id="path8" />
    <path
       d="m 80,65 c 0,4.418 -3.582,8 -8,8 -4.418,0 -8,-3.582 -8,-8 0,-4.418 3.582,-8 8,-8 4.418,0 8,3.582 8,8 z"
       fill="#241f31"
       fill-opacity="0.3"
       id="path9" />
    <path
       d="m 104,91 c 0,4.418 -3.582,8 -8,8 -4.418,0 -8,-3.582 -8,-8 0,-4.418 3.582,-8 8,-8 4.418,0 8,3.582 8,8 z"
       fill="#241f31"
       fill-opacity="0.3"
       id="path10" />
  </g>
  <g
     fill="#ffffff"
     id="g13"
     transform="matrix(0.91523594,0,0,0.91506947,6.5088102,7.4222582)">
    <path
       d="m 48,64 c 0,4.418 -3.582,8 -8,8 -4.418,0 -8,-3.582 -8,-8 0,-4.418 3.582,-8 8,-8 4.418,0 8,3.582 8,8 z"
       id="path11" />
    <path
       d="m 72,46 c 0,4.418 -3.582,8 -8,8 -4.418,0 -8,-3.582 -8,-8 0,-4.418 3.582,-8 8,-8 4.418,0 8,3.582 8,8 z"
       id="path12" />
    <path
       d="m 96,72 c 0,4.418 -3.582,8 -8,8 -4.418,0 -8,-3.582 -8,-8 0,-4.418 3.582,-8 8,-8 4.418,0 8,3.582 8,8 z"
       id="path13" />
  </g>
</svg>
