<?xml version="1.0" encoding="UTF-8" standalone="no"?>
<!-- Generator: Gravit.io -->

<svg
   style="isolation:isolate"
   viewBox="0 0 64 63"
   width="64pt"
   height="63pt"
   version="1.1"
   id="svg2"
   sodipodi:docname="terminal.svg"
   inkscape:version="1.3.2 (091e20ef0f, 2023-11-25)"
   xmlns:inkscape="http://www.inkscape.org/namespaces/inkscape"
   xmlns:sodipodi="http://sodipodi.sourceforge.net/DTD/sodipodi-0.dtd"
   xmlns="http://www.w3.org/2000/svg"
   xmlns:svg="http://www.w3.org/2000/svg">
  <defs
     id="defs2" />
  <sodipodi:namedview
     id="namedview2"
     pagecolor="#ffffff"
     bordercolor="#000000"
     borderopacity="0.25"
     inkscape:showpageshadow="2"
     inkscape:pageopacity="0.0"
     inkscape:pagecheckerboard="0"
     inkscape:deskcolor="#d1d1d1"
     inkscape:document-units="pt"
     inkscape:zoom="11.6875"
     inkscape:cx="32"
     inkscape:cy="47.229947"
     inkscape:window-width="1920"
     inkscape:window-height="1018"
     inkscape:window-x="0"
     inkscape:window-y="0"
     inkscape:window-maximized="1"
     inkscape:current-layer="svg2" />
  <g
     style="opacity:0.99;fill:#2f2f2f;fill-opacity:1"
     id="g2"
     transform="matrix(1.160409,0,0,1.1604089,4.2246463,3.6064438)">
    <g
       opacity="0.99"
       id="g1"
       style="fill:#2f2f2f;fill-opacity:1">
      <ellipse
         vector-effect="non-scaling-stroke"
         cx="23.935831"
         cy="24.468578"
         rx="23.267658"
         ry="23.26766"
         fill="#72787e"
         fill-opacity="0.7"
         id="ellipse1"
         style="fill:#2f2f2f;fill-opacity:1" />
    </g>
  </g>
  <path
     d="m 22.038085,24.640016 c -0.444437,0.007 -0.836655,0.294744 -0.975904,0.717133 -0.139249,0.422388 0.0035,0.886552 0.357406,1.156927 l 6.921839,5.480611 -6.921839,5.479451 c -0.307509,0.22744 -0.466485,0.603413 -0.415427,0.981706 0.05106,0.378294 0.305188,0.698566 0.661433,0.835495 0.357406,0.135768 0.760068,0.0673 1.05017,-0.179864 l 7.958085,-6.298699 c 0.250649,-0.19843 0.39686,-0.500136 0.39686,-0.819249 0,-0.319112 -0.146211,-0.621979 -0.39686,-0.819249 l -7.958085,-6.298699 c -0.190307,-0.156655 -0.430511,-0.240205 -0.677678,-0.235563 z m 10.307913,12.631051 c -0.576724,0 -1.044368,0.467645 -1.044368,1.044368 0,0.576723 0.467644,1.044368 1.044368,1.044368 h 9.613988 c 0.577884,0 1.045529,-0.467645 1.045529,-1.044368 0,-0.576723 -0.467645,-1.044368 -1.045529,-1.044368 z"
     fill-rule="evenodd"
     fill="#ffffff"
     id="path2"
     style="stroke-width:1.16041" />
</svg>
