<?xml version="1.0" encoding="UTF-8" standalone="no"?>
<svg
   width="64"
   height="64"
   version="1.1"
   id="svg2"
   sodipodi:docname="freetube.svg"
   inkscape:version="1.3.2 (091e20ef0f, 2023-11-25)"
   viewBox="0 0 64 64"
   xmlns:inkscape="http://www.inkscape.org/namespaces/inkscape"
   xmlns:sodipodi="http://sodipodi.sourceforge.net/DTD/sodipodi-0.dtd"
   xmlns="http://www.w3.org/2000/svg"
   xmlns:svg="http://www.w3.org/2000/svg">
  <defs
     id="defs2" />
  <sodipodi:namedview
     id="namedview2"
     pagecolor="#ffffff"
     bordercolor="#000000"
     borderopacity="0.25"
     inkscape:showpageshadow="2"
     inkscape:pageopacity="0.0"
     inkscape:pagecheckerboard="0"
     inkscape:deskcolor="#d1d1d1"
     inkscape:zoom="11.6875"
     inkscape:cx="27.037433"
     inkscape:cy="32.085561"
     inkscape:window-width="1920"
     inkscape:window-height="1018"
     inkscape:window-x="0"
     inkscape:window-y="0"
     inkscape:window-maximized="1"
     inkscape:current-layer="svg2" />
  <circle
     cx="32"
     cy="32"
     r="27"
     fill="#3c3f42"
     fill-rule="evenodd"
     style="fill:#e43f3f;fill-opacity:1;paint-order:stroke fill markers"
     id="circle1" />
  <circle
     cx="32"
     cy="32"
     r="23"
     fill="#e43f3f"
     fill-rule="evenodd"
     style="paint-order:stroke fill markers"
     id="circle2" />
  <path
     d="m 45.761,27.042 c -0.15578,-1.748 -1.2671,-3.9525 -3.551,-4.0312 -6.3774,-0.40214 -13.933,-0.5121 -20.425,0 -2.0144,0.21175 -3.3953,2.5129 -3.5457,4.261 -0.31852,3.6718 -0.31852,5.7613 0,9.433 0.15225,1.748 1.4981,4.0624 3.5493,4.3053 6.5699,0.40213 14.089,0.45957 20.425,0 1.9881,-0.32337 3.397,-2.5573 3.5493,-4.3053 0.31674,-3.6734 0.31674,-5.991 -0.0011,-9.6628 z m -17.263,9.6037 v -9.4134 l 8.7506,4.7074 z"
     fill="#ffffff"
     opacity="0.878"
     stroke-width="1.317"
     id="path2" />
</svg>
